PathFileType	4	(X/Y/Z)	C:\Git\research_data\torsion_deformities_healthy_kinematics\simulations\TD07\pre\static_01\markers_HJC.trc
DataRate	CameraRate	NumFrames	NumMarkers	Units	OrigDataRate	OrigDataStartFrame	OrigNumFrames
200	200	6	40	mm	200	91	120
Frame#	Time	C7			T10			CLAV			STRN			RBAK			LASI			RASI			SACR			RT1			RT2			RT3			RKNE			RS1			RS2			RS3			RANK			RHEE			RTOE			RM5D			LT1			LT2			LT3			LKNE			LS1			LS2			LS3			LANK			LHEE			LTOE			LM5D			RHJC			LHJC			LKNM			LANM			RKNM			RANM			LKJC			LAJC			RKJC			RAJC		
		X1	Y1	Z1	X2	Y2	Z2	X3	Y3	Z3	X4	Y4	Z4	X5	Y5	Z5	X6	Y6	Z6	X7	Y7	Z7	X8	Y8	Z8	X9	Y9	Z9	X10	Y10	Z10	X11	Y11	Z11	X12	Y12	Z12	X13	Y13	Z13	X14	Y14	Z14	X15	Y15	Z15	X16	Y16	Z16	X17	Y17	Z17	X18	Y18	Z18	X19	Y19	Z19	X20	Y20	Z20	X21	Y21	Z21	X22	Y22	Z22	X23	Y23	Z23	X24	Y24	Z24	X25	Y25	Z25	X26	Y26	Z26	X27	Y27	Z27	X28	Y28	Z28	X29	Y29	Z29	X30	Y30	Z30	X31	Y31	Z31	X32	Y32	Z32	X33	Y33	Z33	X34	Y34	Z34	X35	Y35	Z35	X36	Y36	Z36	X37	Y37	Z37	X38	Y38	Z38	X39	Y39	Z39	X40	Y40	Z40	

91	0.450000	653.823547	1228.688477	347.624542	663.834534	1004.956543	344.563660	667.692993	1200.572754	220.891449	667.728455	1068.474854	152.387527	756.581848	1096.021484	358.248230	546.270874	797.574402	208.095764	802.053406	833.109314	197.246536	673.432556	853.852234	356.503418	864.535156	607.582825	308.374298	862.015686	547.219971	337.005951	875.161865	545.804565	287.358856	881.258728	442.505798	298.724182	915.636292	350.600403	351.029297	922.166260	287.831818	376.252930	937.722595	293.229553	326.186707	962.167114	87.415794	321.914032	922.960999	45.922607	358.823334	978.842102	47.523243	167.501358	1003.233398	34.440472	257.518280	481.761566	615.784546	255.836914	472.626343	559.625977	291.240356	481.035278	551.467468	240.574417	452.581512	421.993317	304.797241	400.722382	310.187805	318.813507	386.102173	255.489868	353.391968	381.227539	248.748764	302.784424	349.045898	71.234337	335.001556	387.255859	43.353718	357.602020	297.833679	42.673687	178.683868	286.276031	29.763147	273.334778	778.835321	754.908237	266.598615	595.570482	729.447938	274.371945	541.909424	383.329529	261.383423	407.350250	67.491913	271.810730	792.366577	404.731110	267.780090	888.268005	74.951805	278.362335	497.245468	402.661423	283.090332	378.198074	69.363125	303.406143	836.812653	423.618454	283.252136	925.217560	81.183800	300.138184	
92	0.455000	653.831970	1228.698975	347.597412	663.863953	1004.958374	344.539398	667.671692	1200.579590	220.861511	667.663635	1068.489258	152.340515	756.587585	1096.005737	358.183807	546.243103	797.584045	208.086105	802.021912	833.107483	197.146515	673.462585	853.849365	356.447449	864.520874	607.592224	308.287537	862.018982	547.229370	336.928345	875.151367	545.806335	287.278992	881.251526	442.511139	298.669983	915.629639	350.610352	350.975403	922.161133	287.856964	376.215515	937.719666	293.233826	326.152557	962.160034	87.418694	321.912384	922.959045	45.922813	358.821045	978.839722	47.518349	167.501907	1003.239563	34.441132	257.505188	481.746521	615.789673	255.826996	472.619873	559.629761	291.227997	480.995331	551.482849	240.554092	452.577454	421.995331	304.778046	400.721344	310.189270	318.800415	386.103790	255.490555	353.381805	381.226807	248.748657	302.774811	349.053772	71.235847	334.998718	387.258179	43.357090	357.601471	297.832184	42.673359	178.682709	286.277588	29.764866	273.333679	778.825339	754.904840	266.502841	595.563086	729.452751	274.340918	541.902466	383.331390	261.357239	407.352753	67.489906	271.806580	792.357605	404.729034	267.744568	888.262085	74.949150	278.360474	497.239960	402.663361	283.067642	378.203262	69.362877	303.402649	836.804565	423.620087	283.207275	925.211060	81.183922	300.136429	
93	0.460000	653.841064	1228.708984	347.570282	663.893494	1004.960083	344.514679	667.650574	1200.586304	220.831985	667.598145	1068.503662	152.293182	756.593201	1095.988770	358.118683	546.214905	797.593628	208.075272	801.989990	833.105713	197.044189	673.493042	853.846375	356.389740	864.506592	607.601685	308.198853	862.023926	547.238770	336.847198	875.140686	545.808044	287.197327	881.244324	442.516510	298.614380	915.622742	350.620544	350.920044	922.155762	287.882690	376.177277	937.716797	293.238098	326.117615	962.152832	87.421623	321.910736	922.956970	45.923027	358.818665	978.837280	47.513336	167.502441	1003.245789	34.441795	257.491760	481.731445	615.794800	255.816010	472.613495	559.633545	291.214630	480.954773	551.498413	240.532578	452.573517	421.997345	304.758087	400.720428	310.190796	318.786804	386.105438	255.491211	353.371338	381.226135	248.748535	302.764801	349.061707	71.237404	334.995819	387.260468	43.360554	357.600922	297.830658	42.673038	178.681519	286.279175	29.766642	273.332520	778.815261	754.901400	266.404794	595.555600	729.457434	274.308427	541.895508	383.333130	261.330200	407.355316	67.487823	271.802338	792.348633	404.726959	267.707916	888.255981	74.946426	278.358521	497.234512	402.665237	283.044144	378.208511	69.362614	303.399078	836.796478	423.621735	283.161148	925.204407	81.184025	300.134628	
94	0.465000	653.850830	1228.718384	347.543152	663.923035	1004.961670	344.489441	667.629578	1200.592896	220.802856	667.531799	1068.518066	152.245575	756.598694	1095.970703	358.052856	546.186401	797.603149	208.063263	801.957642	833.104004	196.939590	673.523865	853.843140	356.330322	864.492249	607.611206	308.108185	862.030457	547.248230	336.762451	875.129944	545.809753	287.113861	881.237061	442.521912	298.557373	915.615601	350.630981	350.863190	922.150146	287.908997	376.138275	937.713867	293.242310	326.081879	962.145386	87.424576	321.909088	922.954895	45.923248	358.816223	978.834839	47.508213	167.502975	1003.252258	34.442463	257.478058	481.716278	615.799805	255.803955	472.607178	559.637329	291.200226	480.913696	551.514160	240.509872	452.569611	421.999329	304.737366	400.719574	310.192322	318.772705	386.107147	255.491806	353.360565	381.225525	248.748398	302.754456	349.069733	71.239021	334.992828	387.262726	43.364120	357.600433	297.829132	42.672729	178.680298	286.280762	29.768471	273.331329	778.805106	754.897907	266.304439	595.548123	729.461976	274.274415	541.888611	383.334778	261.302246	407.357941	67.485664	271.798004	792.339661	404.724854	267.670166	888.249817	74.943634	278.356445	497.229111	402.667053	283.019806	378.213837	69.362343	303.395416	836.788361	423.623383	283.113770	925.197601	81.184105	300.132767	
95	0.470000	653.861328	1228.727417	347.516083	663.952637	1004.963074	344.463684	667.608765	1200.599487	220.774155	667.464783	1068.532593	152.197662	756.604126	1095.951538	357.986328	546.157532	797.612610	208.050079	801.924805	833.102295	196.832687	673.555115	853.839783	356.269196	864.477966	607.620850	308.015564	862.038635	547.257812	336.674103	875.119019	545.811401	287.028564	881.229858	442.527313	298.498993	915.608215	350.641602	350.804871	922.144287	287.935852	376.098450	937.710876	293.246490	326.045319	962.137756	87.427551	321.907410	922.952759	45.923477	358.813690	978.832336	47.502972	167.503494	1003.258789	34.443134	257.464050	481.701050	615.804749	255.790848	472.600952	559.641052	291.184814	480.872009	551.530029	240.485947	452.565826	422.001343	304.715912	400.718842	310.193909	318.758087	386.108887	255.492371	353.349518	381.224976	248.748245	302.743683	349.077820	71.240685	334.989777	387.265015	43.367783	357.599945	297.827606	42.672432	178.679031	286.282379	29.770355	273.330109	778.794798	754.894364	266.201820	595.540579	729.466426	274.238949	541.881775	383.336273	261.273376	407.360596	67.483437	271.793579	792.330688	404.722717	267.631287	888.243469	74.940773	278.354248	497.223801	402.668808	282.994644	378.219208	69.362061	303.391678	836.780273	423.625015	283.065140	925.190613	81.184162	300.130829	
96	0.475000	653.872498	1228.735962	347.489014	663.982239	1004.964355	344.437439	667.588135	1200.605957	220.745865	667.396912	1068.547241	152.149460	756.609497	1095.931274	357.919098	546.128296	797.622070	208.035706	801.891602	833.100647	196.723511	673.586792	853.836182	356.206329	864.463745	607.630554	307.920990	862.048462	547.267395	336.582184	875.107971	545.813049	286.941498	881.222595	442.532745	298.439209	915.600586	350.652466	350.745087	922.138184	287.963287	376.057861	937.707886	293.250671	326.007965	962.129944	87.430550	321.905731	922.950500	45.923714	358.811066	978.829834	47.497620	167.504028	1003.265503	34.443810	257.449738	481.685791	615.809631	255.776688	472.594818	559.644836	291.168396	480.829773	551.546021	240.460831	452.562073	422.003326	304.693665	400.718231	310.195526	318.742950	386.110657	255.492905	353.338165	381.224457	248.748077	302.732574	349.085999	71.242409	334.986664	387.267273	43.371540	357.599518	297.826080	42.672138	178.677750	286.283997	29.772293	273.328857	778.784432	754.890725	266.096878	595.532981	729.470735	274.201935	541.874939	383.337677	261.243652	407.363312	67.481133	271.789062	792.321655	404.720551	267.591309	888.236938	74.937843	278.351959	497.218506	402.670502	282.968658	378.224655	69.361771	303.387863	836.772125	423.626648	283.015259	925.183441	81.184196	300.128845	
